<?xml version="1.0" standalone="no"?><!DOCTYPE svg PUBLIC "-//W3C//DTD SVG 1.1//EN" "http://www.w3.org/Graphics/SVG/1.1/DTD/svg11.dtd"><svg t="1741871614648" class="icon" viewBox="0 0 1024 1024" version="1.1" xmlns="http://www.w3.org/2000/svg" p-id="4108" data-spm-anchor-id="a313x.search_index.0.i1.15f33a81lLRBB7" xmlns:xlink="http://www.w3.org/1999/xlink" width="200" height="200"><path d="M558.7456 76.8h-11.4688A339.3024 339.3024 0 0 0 202.752 385.2288l-2.56 6.7072-1.28 3.9936-0.6144 3.3792 0.512-1.7408c-5.0176 18.176-13.824 41.0624-26.2144 68.5056l-11.5712 24.6784c-8.2944 17.152-17.8176 35.7888-28.5184 55.9104l-2.6624 4.4544c-10.7008 21.504-0.0512 48.9984 26.5216 52.5312l1.5872 0.1024 18.6368 4.6592c0.6656 0.2048 1.4336 1.3824 1.28 2.6624l-0.2048 74.9056c0 64.6144 64.5632 107.52 138.5472 107.52h15.36c-1.1776 0-1.4336 0.768-1.28 3.4816l1.024 15.4624 0.256 16.896v76.8c0 31.1296 34.4576 40.96 66.56 40.96h338.7904c27.0336 0 56.32-11.7248 56.32-40.96v-107.52a327.6288 327.6288 0 0 1-0.1536-68.9664 146.432 146.432 0 0 1 21.76-60.672l9.9328-14.848a383.2832 383.2832 0 0 0 70.8608-213.2992v-31.3344l-5.3248-44.1344a342.784 342.784 0 0 0-331.6224-288.6656z m-11.5712 51.1488a291.328 291.328 0 0 1 292.5056 244.736l5.0176 40.0384-0.2048 27.5456a332.3904 332.3904 0 0 1-61.7984 184.832l-10.7008 16.0256a198.4512 198.4512 0 0 0-29.696 82.7904l-1.3312 15.5648c-1.3824 20.736-0.9216 41.4208 1.28 61.952l-0.1536 93.7984-2.2016 0.4608a20.48 20.48 0 0 1-2.9184 0.256H398.1824l-3.328-0.2048a91.8016 91.8016 0 0 1-9.2672-1.536l-2.7648-0.6656-0.1024-76.8-0.2048-6.6048c-1.8432-40.7552-14.1824-67.7888-50.8928-67.7888h-15.36c-49.0496 0-87.3472-25.4464-87.3472-56.32v-71.68l0.4096-5.4272c0.1536-21.6064-15.872-43.4176-39.7312-49.9712l-5.12-1.3312 8.3456-15.9744 7.4752-14.7456 13.4144-27.648c16.5888-35.3792 28.0064-64.512 34.5088-88.0128l0.9216-6.8096c0 2.304 0.1536 2.4576 0.4096 1.9456l0.3072-0.768c2.8672-7.0656 4.4032-13.568 4.4032-21.6576 14.7968-142.592 135.5776-252.928 280.2176-256h12.6976z" fill="#1c36ce" p-id="4109" data-spm-anchor-id="a313x.search_index.0.i2.15f33a81lLRBB7" class="selected"></path><path d="M509.4912 307.2l104.1408 270.4384h-44.3392l-25.6-69.6832H427.6736l-25.6 69.6832h-43.5712L462.6432 307.2h46.9504-0.1024z m172.3392 0v270.4384h-40.96V307.2h40.96z m-195.072 44.3392h-1.536l-44.8 122.3168h91.2896l-44.9536-122.3168z" fill="#0179FF" p-id="4110"></path></svg>